<?xml version="1.0" encoding="UTF-8"?>
<svg version="1.1" xmlns="http://www.w3.org/2000/svg" width="192" height="192">
<path d="M0 0 C20.88701442 17.08652948 34.05317284 40.07617754 37 67 C38.88943583 90.51653754 32.54471976 115.32958919 17.6640625 133.91796875 C15.50309667 136.3481579 13.29028214 138.69199808 11 141 C10.175 141.86625 9.35 142.7325 8.5 143.625 C7.675 144.40875 6.85 145.1925 6 146 C5.42636719 146.58007812 4.85273438 147.16015625 4.26171875 147.7578125 C-0.24819406 152.08936718 -5.05522125 155.49305619 -10.4375 158.625 C-11.01411377 158.97272461 -11.59072754 159.32044922 -12.18481445 159.67871094 C-25.90398825 167.35072318 -39.86342441 169.98262989 -55.42333984 169.72729492 C-58.13147937 169.68740456 -60.83473937 169.70676188 -63.54296875 169.73242188 C-78.07324449 169.7274666 -90.85626646 166.94638398 -103.6875 159.875 C-104.73647461 159.30640259 -104.73647461 159.30640259 -105.80664062 158.72631836 C-126.51730982 147.06122745 -141.69575978 127.44772669 -149 105 C-149.31541748 104.04432129 -149.31541748 104.04432129 -149.63720703 103.06933594 C-156.71188261 80.67459884 -154.54559824 55.21619647 -144.0625 34.25 C-142.76242781 31.7948114 -141.39843777 29.40287125 -140 27 C-139.4946875 26.13117187 -138.989375 25.26234375 -138.46875 24.3671875 C-134.67640753 18.32050812 -129.87840736 13.1811454 -125 8 C-124.45859375 7.38253906 -123.9171875 6.76507812 -123.359375 6.12890625 C-92.53646573 -27.57392131 -34.4051325 -26.764631 0 0 Z " fill="#31EFDE" transform="translate(154,23)"/>
<path d="M0 0 C1.22807373 -0.01260864 2.45614746 -0.02521729 3.72143555 -0.03820801 C5.0577858 -0.03104814 6.3941308 -0.02284414 7.73046875 -0.01367188 C9.1052274 -0.01636764 10.47998419 -0.02025077 11.85473633 -0.02526855 C14.73309519 -0.0311598 17.61095684 -0.02261364 20.48925781 -0.00390625 C24.17500891 0.01888424 27.85959497 0.00575899 31.54530334 -0.01819611 C34.38326768 -0.03266486 37.22095673 -0.02804341 40.05892944 -0.01768494 C41.41767516 -0.01502057 42.77644603 -0.01827728 44.13516235 -0.02760315 C46.03541574 -0.03778428 47.93575699 -0.01950917 49.8359375 0 C51.45665161 0.00477356 51.45665161 0.00477356 53.11010742 0.00964355 C56.59329215 0.63974231 57.72730717 1.79755566 59.91796875 4.51757812 C69.44660604 21.19947533 70.84878965 38.95495529 70.66796875 57.70507812 C70.65473572 59.23018509 70.65473572 59.23018509 70.64123535 60.78610229 C70.60404058 63.69107831 70.54291597 66.59390038 70.46484375 69.49804688 C70.43263733 70.82113861 70.43263733 70.82113861 70.39978027 72.17095947 C70.16031345 78.27523342 70.16031345 78.27523342 67.91796875 80.51757812 C65.38671875 80.78320312 65.38671875 80.78320312 62.41796875 80.76757812 C61.43828125 80.77273437 60.45859375 80.77789062 59.44921875 80.78320312 C56.91796875 80.51757812 56.91796875 80.51757812 54.91796875 78.51757812 C54.91796875 75.87757813 54.91796875 73.23757812 54.91796875 70.51757812 C35.11796875 70.51757812 15.31796875 70.51757812 -5.08203125 70.51757812 C-5.08203125 73.15757812 -5.08203125 75.79757813 -5.08203125 78.51757812 C-8.33285798 80.68479595 -9.37435278 80.78978831 -13.14453125 80.76757812 C-14.02238281 80.77273437 -14.90023437 80.77789062 -15.8046875 80.78320312 C-18.08203125 80.51757812 -18.08203125 80.51757812 -20.08203125 78.51757812 C-20.38252877 75.48122188 -20.5548031 72.54232371 -20.62890625 69.49804688 C-20.65359985 68.57948914 -20.67829346 67.6609314 -20.70373535 66.71453857 C-20.76870192 63.711254 -20.80596733 60.70894547 -20.83203125 57.70507812 C-20.84182007 56.69003204 -20.85160889 55.67498596 -20.86169434 54.62918091 C-20.93072699 37.3612773 -19.76671551 16.54251115 -8.37640381 2.39979553 C-5.41893425 -0.02640185 -3.79470286 0.0111767 0 0 Z " fill="#FC0915" transform="translate(71.08203125,55.482421875)"/>
<path d="M0 0 C20.88701442 17.08652948 34.05317284 40.07617754 37 67 C38.88943583 90.51653754 32.54471976 115.32958919 17.6640625 133.91796875 C15.50309667 136.3481579 13.29028214 138.69199808 11 141 C10.175 141.86625 9.35 142.7325 8.5 143.625 C7.675 144.40875 6.85 145.1925 6 146 C5.42636719 146.58007812 4.85273438 147.16015625 4.26171875 147.7578125 C-0.24819406 152.08936718 -5.05522125 155.49305619 -10.4375 158.625 C-11.01411377 158.97272461 -11.59072754 159.32044922 -12.18481445 159.67871094 C-25.90398825 167.35072318 -39.86342441 169.98262989 -55.42333984 169.72729492 C-58.13147937 169.68740456 -60.83473937 169.70676188 -63.54296875 169.73242188 C-78.07324449 169.7274666 -90.85626646 166.94638398 -103.6875 159.875 C-104.73647461 159.30640259 -104.73647461 159.30640259 -105.80664062 158.72631836 C-126.51730982 147.06122745 -141.69575978 127.44772669 -149 105 C-149.31541748 104.04432129 -149.31541748 104.04432129 -149.63720703 103.06933594 C-156.71188261 80.67459884 -154.54559824 55.21619647 -144.0625 34.25 C-142.76242781 31.7948114 -141.39843777 29.40287125 -140 27 C-139.4946875 26.13117187 -138.989375 25.26234375 -138.46875 24.3671875 C-134.67640753 18.32050812 -129.87840736 13.1811454 -125 8 C-124.45859375 7.38253906 -123.9171875 6.76507812 -123.359375 6.12890625 C-92.53646573 -27.57392131 -34.4051325 -26.764631 0 0 Z M-87 -11 C-88.79244141 -10.36384766 -88.79244141 -10.36384766 -90.62109375 -9.71484375 C-113.42232798 -0.74918867 -130.44432116 16.75401519 -140.19091797 38.99804688 C-148.78507558 60.26301139 -148.92111057 85.14308933 -140.26953125 106.32421875 C-130.51880277 128.96946228 -113.21551873 146.64352139 -90.3125 155.9375 C-88.21812159 156.65426543 -86.11400565 157.34337703 -84 158 C-83.0821875 158.31710938 -82.164375 158.63421875 -81.21875 158.9609375 C-60.10053382 165.14880192 -36.20991053 161.70489438 -16.9375 151.6875 C-10.40906857 148.09381343 -4.50013232 144.05288972 1 139 C2.24136719 137.89591797 2.24136719 137.89591797 3.5078125 136.76953125 C19.07375577 122.17943458 29.36152693 101.09631008 30.3828125 79.76171875 C30.7175585 67.28788211 30.19927977 55.81292721 26 44 C25.36384766 42.20755859 25.36384766 42.20755859 24.71484375 40.37890625 C15.71018069 17.47846788 -1.7827476 0.65650546 -24.04980469 -9.19091797 C-43.48562824 -17.25430295 -67.14207128 -18.05913081 -87 -11 Z " fill="#000000" transform="translate(154,23)"/>
<path d="M0 0 C18.48 0 36.96 0 56 0 C63 21 63 21 63 23 C39.9 23 16.8 23 -7 23 C-4.89140951 15.26850154 -2.53421037 7.60263112 0 0 Z " fill="#37EBDB" transform="translate(68,63)"/>
<path d="M0 0 C2.5 2.0625 2.5 2.0625 4 5 C4 8.80284671 3.7968187 11.01930006 1.375 14 C-2.11581787 15.46981805 -4.39148956 14.98413921 -8 14 C-10.5881216 11.74582958 -10.94242643 10.39479021 -11.4375 7 C-11 4 -11 4 -9.4375 1.625 C-6.04129157 -0.63913895 -3.99900698 -0.64269755 0 0 Z " fill="#35E9D8" transform="translate(127,96)"/>
<path d="M0 0 C2.4375 1.625 2.4375 1.625 4 4 C4.5625 6.9375 4.5625 6.9375 4 10 C1.9375 12.9375 1.9375 12.9375 -1 15 C-4.8427383 15.06625411 -6.99200716 14.81899419 -10 12.375 C-11.45635054 8.91616747 -10.91305869 6.58701629 -10 3 C-7.67133148 -1.01048467 -4.26353269 -0.52359173 0 0 Z " fill="#39E9D9" transform="translate(72,96)"/>
<path d="M0 0 C1.15371094 0.00322266 2.30742188 0.00644531 3.49609375 0.00976562 C4.68589844 0.01814453 5.87570313 0.02652344 7.1015625 0.03515625 C8.92107422 0.04192383 8.92107422 0.04192383 10.77734375 0.04882812 C13.76046757 0.06057271 16.74348929 0.07699785 19.7265625 0.09765625 C19.7265625 0.42765625 19.7265625 0.75765625 19.7265625 1.09765625 C18.96625732 1.14776855 18.20595215 1.19788086 17.42260742 1.24951172 C13.91929365 1.48411219 10.41671075 1.72832785 6.9140625 1.97265625 C5.71845703 2.05128906 4.52285156 2.12992188 3.29101562 2.2109375 C-7.09067461 2.94642509 -16.8234215 3.93917818 -26.3359375 8.34765625 C-26.96564453 8.62222656 -27.59535156 8.89679687 -28.24414062 9.1796875 C-38.13781143 13.62337046 -45.82704887 19.08509917 -53.2734375 26.97265625 C-54.74819306 28.51594606 -56.22713786 30.05524737 -57.7109375 31.58984375 C-58.34902344 32.2638623 -58.98710938 32.93788086 -59.64453125 33.63232422 C-61.2734375 35.09765625 -61.2734375 35.09765625 -63.2734375 35.09765625 C-56.43756647 20.38919442 -39.66436177 11.06805222 -25.2734375 5.09765625 C-16.91626601 2.04985058 -8.93311768 -0.04422335 0 0 Z " fill="#55E8DB" transform="translate(89.2734375,7.90234375)"/>
<path d="M0 0 C1.32 0.33 2.64 0.66 4 1 C2.21427748 2.83947337 0.42197551 4.67157741 -1.375 6.5 C-1.88289063 7.02464844 -2.39078125 7.54929687 -2.9140625 8.08984375 C-4.23832604 9.43153181 -5.61605865 10.71995815 -7 12 C-7.66 12 -8.32 12 -9 12 C-7.55575365 8.76138697 -5.74227753 6.38030837 -3.375 3.75 C-2.74335937 3.04359375 -2.11171875 2.3371875 -1.4609375 1.609375 C-0.97882812 1.07828125 -0.49671875 0.5471875 0 0 Z " fill="#47E3D4" transform="translate(35,31)"/>
</svg>
